<svg xmlns="http://www.w3.org/2000/svg" fill-rule="evenodd" stroke-linecap="round" stroke-linejoin="round" clip-rule="evenodd"><defs><style>:root svg:not(:target){display:none}</style></defs><svg id="arrow" fill="none" stroke="#fff" stroke-width=".7" viewBox="0 0 8 8"><path d="M1 4h6M5 2l2 2-2 2"/></svg><svg id="arrow-down" fill="none" stroke="currentcolor" stroke-width=".7" viewBox="0 0 8 8"><path d="M4 2v4m2-2L4 6 2 4"/></svg><svg id="instagram" fill="#fff" viewBox="0 0 40 40"><path d="M15.45 12.158a3.292 3.292 0 0 0-3.291 3.292v9.098a3.29 3.29 0 0 0 3.291 3.292h9.099a3.29 3.29 0 0 0 3.291-3.29v-9.1a3.29 3.29 0 0 0-3.29-3.292h-9.1ZM9.66 15.45a5.792 5.792 0 0 1 5.791-5.792h9.1a5.79 5.79 0 0 1 5.79 5.792v9.1a5.79 5.79 0 0 1-5.791 5.79H15.45a5.79 5.79 0 0 1-5.791-5.792V15.45Z"/><path d="M23.666 15a1.334 1.334 0 1 1 2.668 0 1.334 1.334 0 0 1-2.668 0ZM21.474 18.527a2.083 2.083 0 1 0-2.946 2.945 2.083 2.083 0 0 0 2.946-2.945Zm1.767-1.768a4.582 4.582 0 1 0-6.48 6.48 4.582 4.582 0 0 0 6.48-6.48Z"/><path d="M12.5 6.25a6.25 6.25 0 0 0-6.25 6.25v15.007a6.244 6.244 0 0 0 6.243 6.243h15.014a6.243 6.243 0 0 0 6.243-6.242V12.493a6.244 6.244 0 0 0-6.243-6.243H12.5Zm0-2.5h15.007a8.743 8.743 0 0 1 8.743 8.743v15.015a8.743 8.743 0 0 1-8.743 8.742H12.493a8.743 8.743 0 0 1-8.743-8.743V12.5a8.75 8.75 0 0 1 8.75-8.75Z"/></svg><svg id="linkedin" fill="#fff" viewBox="0 0 40 40"><path d="M12.5 6.25a6.25 6.25 0 0 0-6.25 6.25v15.007a6.244 6.244 0 0 0 6.243 6.243h15.014a6.243 6.243 0 0 0 6.243-6.242V12.493a6.244 6.244 0 0 0-6.243-6.243H12.5Zm0-2.5h15.007a8.743 8.743 0 0 1 8.743 8.743v15.015a8.743 8.743 0 0 1-8.743 8.742H12.493a8.743 8.743 0 0 1-8.743-8.743V12.5a8.75 8.75 0 0 1 8.75-8.75Z"/><path d="M13.533 17.25c.69 0 1.25.56 1.25 1.25v9a1.25 1.25 0 1 1-2.5 0v-9c0-.69.56-1.25 1.25-1.25ZM23.283 19.75a2.5 2.5 0 0 0-2.5 2.5v5.25a1.25 1.25 0 1 1-2.5 0v-5.25a5 5 0 0 1 5-5 5 5 0 0 1 5 5v5.25a1.25 1.25 0 1 1-2.5 0v-5.25a2.5 2.5 0 0 0-2.5-2.5ZM11.907 13.443a1.625 1.625 0 1 1 3.25-.01 1.625 1.625 0 0 1-3.25.01Z"/></svg><svg id="twitter" fill="#fff" stroke="#fff" stroke-width=".7" viewBox="0 0 40 40"><path d="M26.578 7c-3.945 0-7.153 3.2-7.153 7.136 0 .236.06.467.082.699-4.877-.466-9.191-2.81-12.12-6.396a.664.664 0 0 0-.57-.249.657.657 0 0 0-.523.332 7.066 7.066 0 0 0-.97 3.578c0 1.58.568 3.028 1.444 4.215-.17-.074-.356-.115-.516-.205a.66.66 0 0 0-.969.576v.082c0 2.424 1.258 4.529 3.113 5.82-.02-.003-.041.004-.062 0a.66.66 0 0 0-.742.843c.737 2.284 2.618 4.03 4.948 4.667a12.348 12.348 0 0 1-6.329 1.748c-.502 0-.984-.026-1.464-.082a.658.658 0 0 0-.432 1.213A19.059 19.059 0 0 0 14.622 34c6.156 0 10.985-2.565 14.224-6.23 3.239-3.666 4.927-8.427 4.927-12.874 0-.187-.016-.37-.02-.555 1.208-.923 2.287-2.005 3.133-3.27a.658.658 0 0 0-.825-.966c-.34.152-.737.167-1.093.288.47-.625.871-1.298 1.114-2.056a.66.66 0 0 0-.222-.715.662.662 0 0 0-.747-.046c-1.126.666-2.373 1.133-3.69 1.419C30.145 7.802 28.462 7 26.578 7Zm0 1.316c1.683 0 3.203.717 4.268 1.85.16.165.394.235.618.186.86-.17 1.678-.42 2.474-.74a5.865 5.865 0 0 1-1.69 1.542.659.659 0 0 0 .433 1.234c.659-.08 1.246-.347 1.875-.514-.564.609-1.183 1.159-1.855 1.645a.655.655 0 0 0-.268.575c.01.268.02.533.02.802 0 4.113-1.582 8.578-4.597 11.989-3.015 3.411-7.442 5.799-13.234 5.799-2.631 0-5.115-.581-7.36-1.604 2.783-.213 5.35-1.195 7.422-2.817a.659.659 0 0 0-.392-1.172c-2.175-.039-3.997-1.301-4.968-3.085h.103c.652 0 1.296-.082 1.896-.247a.66.66 0 0 0 .477-.653.66.66 0 0 0-.518-.622c-2.347-.473-4.107-2.38-4.514-4.75.665.229 1.345.409 2.082.432a.66.66 0 0 0 .667-.455.656.656 0 0 0-.276-.758A5.823 5.823 0 0 1 6.644 12.1c0-.75.196-1.44.454-2.098 3.298 3.612 7.916 6.01 13.131 6.272a.656.656 0 0 0 .68-.802 5.86 5.86 0 0 1-.165-1.336 5.815 5.815 0 0 1 5.834-5.82Z"/></svg><svg id="skype" fill="#fff" viewBox="0 0 40 40"><path d="M16.923 7.178c-2.33-1.35-5.451-1.21-7.63.362l-.731-1.013.717 1.024a7.165 7.165 0 0 0-2.87 4.332v.007a7.204 7.204 0 0 0 .773 5.042c.144.251.195.544.147.83-.384 2.26-.18 4.618.624 6.749l.002.005a12.919 12.919 0 0 0 6.24 6.96l.007.004c2.444 1.248 5.31 1.656 8.031 1.188.289-.05.585.004.838.15 2.268 1.313 5.28 1.226 7.445-.23l.013-.01c1.576-1.03 2.718-2.71 3.077-4.55l.003-.01a7.207 7.207 0 0 0-.797-4.953 1.25 1.25 0 0 1-.146-.83 12.993 12.993 0 0 0-.502-6.415l-.003-.006c-1.027-3.022-3.24-5.623-6.053-7.134l-.006-.004c-2.514-1.37-5.507-1.84-8.338-1.348a1.25 1.25 0 0 1-.841-.15Zm-9.086-1.67c2.863-2.062 6.824-2.312 9.938-.712 3.24-.466 6.628.109 9.52 1.683 3.364 1.809 6 4.905 7.233 8.528a15.475 15.475 0 0 1 .67 7.22 9.708 9.708 0 0 1 .861 6.287c-.491 2.506-2.029 4.76-4.155 6.153-2.84 1.907-6.661 2.085-9.684.534-3.102.441-6.342-.06-9.151-1.492a15.42 15.42 0 0 1-7.456-8.319c-.914-2.424-1.176-5.069-.816-7.616a9.714 9.714 0 0 1-.833-6.41 9.665 9.665 0 0 1 3.873-5.856Z"/><path d="M16.977 15.314c-.523.374-.727.827-.727 1.311a1.75 1.75 0 0 0 1.463 1.727l4.985.832a4.248 4.248 0 0 1 3.552 4.15v.041c-.013 1.317-.641 2.494-1.773 3.303-1.111.794-2.644 1.197-4.477 1.197-1.375 0-2.672-.316-3.727-.88-1.043-.557-1.94-1.41-2.324-2.53a1.25 1.25 0 1 1 2.365-.81c.12.347.466.777 1.137 1.135.658.352 1.544.585 2.549.585 1.5 0 2.467-.334 3.023-.73.515-.369.721-.814.727-1.29a1.748 1.748 0 0 0-1.461-1.705l-2.494-.417-2.494-.415a4.252 4.252 0 0 1-3.551-4.193c0-1.334.63-2.527 1.773-3.345 1.111-.793 2.644-1.196 4.477-1.196 1.376 0 2.673.316 3.728.88 1.042.557 1.939 1.41 2.323 2.529a1.25 1.25 0 1 1-2.365.811c-.12-.348-.466-.777-1.137-1.136-.658-.351-1.543-.584-2.549-.584-1.5 0-2.467.333-3.023.73Z"/></svg><svg id="telegram" fill="#fff" viewBox="0 0 40 40"><path d="M12.5 6.25a6.25 6.25 0 0 0-6.25 6.25v15.007a6.244 6.244 0 0 0 6.243 6.243h15.014a6.243 6.243 0 0 0 6.243-6.242V12.493a6.244 6.244 0 0 0-6.243-6.243H12.5Zm0-2.5h15.007a8.743 8.743 0 0 1 8.743 8.743v15.015a8.743 8.743 0 0 1-8.743 8.742H12.493a8.743 8.743 0 0 1-8.743-8.743V12.5a8.75 8.75 0 0 1 8.75-8.75Z"/><path d="m25.882 15.042-2.188 10.315-3.16-2.334a1.25 1.25 0 0 0-1.614.11l-1.24 1.206-1.014-3.34a1.25 1.25 0 0 0-.312-.521 2.527 2.527 0 0 0-.44-.285l-.034-.012-.019-.007-.012-.003-.013-.005-.035-.01-1.755-.549 11.836-4.565Zm-9.059 10.776-1.194.367c.393 1.28 1.993 1.687 2.953.765l1.32-1.285 2.665 1.967c1.294.96 3.146.256 3.48-1.318l2.478-11.682c.323-1.54-1.189-2.83-2.66-2.264l-14.749 5.69h-.002c-1.548.595-1.46 2.798.107 3.287l3.245 1.012 1.161 3.825 1.196-.364Zm6.777-.022Z"/></svg><svg id="facebook" fill="#fff" viewBox="0 0 40 40"><path d="M12.75 6.5a6.25 6.25 0 0 0-6.25 6.25v15.007A6.244 6.244 0 0 0 12.743 34h15.014A6.243 6.243 0 0 0 34 27.758V12.743A6.244 6.244 0 0 0 27.757 6.5H12.75Zm0-2.5h15.007a8.743 8.743 0 0 1 8.743 8.743v15.015a8.743 8.743 0 0 1-8.743 8.742H12.743A8.743 8.743 0 0 1 4 27.757V12.75A8.75 8.75 0 0 1 12.75 4Z"/><path d="M24.992 13.074c-.514.097-1.267.386-1.686.646-.416.258-1.02.844-1.275 1.237a5.303 5.303 0 0 0-.587 1.242c-.23.728-.26 1.033-.289 2.802l-.026 1.692H18.827l-.264.144a.975.975 0 0 0-.414.397l-.149.252v1.399c0 1.334.005 1.409.107 1.606.133.26.288.412.523.514.147.065.408.08 1.346.08h1.163l.013 4.56.013 4.56.11.213c.135.264.357.465.597.538.119.037.648.051 1.502.04l1.32-.016.214-.157c.117-.087.27-.26.337-.388l.124-.23.014-4.56.013-4.56h2.532l.24-.136c.229-.13.448-.395.509-.613.046-.168.277-2.304.276-2.558a1.115 1.115 0 0 0-.652-1.005c-.151-.066-.426-.08-1.545-.08h-1.362V19.23c0-1.682.032-1.89.34-2.212.273-.285.563-.355 1.613-.391.993-.034 1.124-.072 1.4-.4.23-.273.267-.5.249-1.498-.015-.83-.024-.897-.14-1.113-.192-.358-.458-.523-.923-.574-.63-.07-2.514-.049-2.94.032Z"/></svg></svg>